<?xml version="1.0" encoding="utf-8"?>
<!-- Generator: Adobe Illustrator 22.0.1, SVG Export Plug-In . SVG Version: 6.00 Build 0)  -->
<svg version="1.1" id="Layer_1" xmlns="http://www.w3.org/2000/svg" xmlns:xlink="http://www.w3.org/1999/xlink" x="0px" y="0px"
	 viewBox="0 0 339 339" style="enable-background:new 0 0 339 339;" xml:space="preserve">
<style type="text/css">
	.st0{fill:#0678BE;}
	.st1{fill:#FFFFFF;}
</style>
<path class="st0" d="M313.5,331.5h-288c-9.9,0-18-8.1-18-18v-288c0-9.9,8.1-18,18-18h288c9.9,0,18,8.1,18,18v288
	C331.5,323.4,323.4,331.5,313.5,331.5z"/>
<circle class="st1" cx="66.5" cy="272" r="30"/>
<path class="st1" d="M172,302h-20c-9.9,0-18-8.1-18-18V163.5c0-9.9,8.1-18,18-18h20c9.9,0,18,8.1,18,18V284
	C190,293.9,181.9,302,172,302z"/>
<path class="st1" d="M274,302h-20c-9.9,0-18-8.1-18-18V77.5c0-9.9,8.1-18,18-18h20c9.9,0,18,8.1,18,18V284
	C292,293.9,283.9,302,274,302z"/>
</svg>
